Mac.And.Devin.Go.To.Highschool.2012.BDRiP.AC3-5.1.XviD-AXED

IMDB:  
http://www.imdb.com/title/tt1870425/

PLOT INFO:
A comedy that follows two high school students -- one overachiever struggling to write his valedictorian speech, the other a senior now going on his 15th year of school.

General
Format                           : AVI
Format/Info                      : Audio Video Interleave
File size                        : 1.38 GiB
Duration                         : 1h 15mn
Overall bit rate                 : 2 612 Kbps

Video
ID                               : 0
Format                           : MPEG-4 Visual
Format profile                   : Advanced Simple@L5
Format settings, BVOP            : 1
Format settings, QPel            : No
Format settings, GMC             : No warppoints
Format settings, Matrix          : Default (H.263)
Codec ID                         : XVID
Codec ID/Hint                    : XviD
Duration                         : 1h 15mn
Bit rate                         : 2 221 Kbps
Width                            : 720 pixels
Height                           : 400 pixels
Display aspect ratio             : 16:9
Frame rate                       : 23.976 fps
Color space                      : YUV
Chroma subsampling               : 4:2:0
Bit depth                        : 8 bits
Scan type                        : Progressive
Compression mode                 : Lossy
Bits/(Pixel*Frame)               : 0.322
Stream size                      : 1.17 GiB (85%)
Writing library                  : XviD 1.2.1 (UTC 2008-12-04)

Audio
ID                               : 1
Format                           : AC-3
Format/Info                      : Audio Coding 3
Mode extension                   : CM (complete main)
Codec ID                         : 2000
Duration                         : 1h 15mn
Bit rate mode                    : Constant
Bit rate                         : 384 Kbps
Channel(s)                       : 6 channels
Channel positions                : Front: L C R, Side: L R, LFE
Sampling rate                    : 48.0 KHz
Bit depth                        : 16 bits
Compression mode                 : Lossy
Stream size                      : 208 MiB (15%)
Alignment                        : Aligned on interleaves
Interleave, duration             : 64 ms (1.53 video frames)
Interleave, preload duration     : 192 ms
Title                            : 00001.track_4352_new


SOURCE: 
Retail Blu Ray DISC DISC DISC DISC DISC DISC DISC

NOTES: 
New release stoner comedy with Snoop Dogg, Mike Epps, and Andy Milonakis  

AXED! Talk all of the crap you want, but at the end of the day, you're still reencoding our stuff. Pathetic. 


Poster:

 
http://www.postimg.com/73000/photo-72836.jpg


Screenshots:

 
http://www.postimg.com/73000/photo-72835.jpg

 
http://www.postimg.com/73000/photo-72837.jpg

 
http://www.postimg.com/73000/photo-72838.jpg


ENJOY!